# xmcd CD database file
#
# Track frame offsets:
#	150
#	12498
#	31971
#	46719
#	65592
#	82815
#	96963
#	114186
#	132459
#	152232
#	168930
#	189078
#
# Disc length: 2739 seconds
#
# Revision: 2
# Processed by: cddbd v1.5.2PL0 Copyright (c) Steve Scherf et al.
# Submitted via: CDex 1.70beta2
#
DISCID=8c0ab10c
DTITLE=Marty Grosz and His Honoris Causa Jazz Band - Hooray for Bix!
DYEAR=1957
DGENRE=Jazz
TTITLE0=Changes
TTITLE1=Cryin' All Day
TTITLE2=Lonely Melody
TTITLE3=I'm Gonna Meet My Sweetie Now
TTITLE4=Sorry
TTITLE5=My Pet
TTITLE6=The Love Nest
TTITLE7=Clementine
TTITLE8=Oh, Miss Hannah
TTITLE9=Wa-Da-Da (Everybody's Doin' It Now)
TTITLE10=For No Reason At All In 'c'
TTITLE11=Because My Baby Don't Mean Maybe Now
EXTD=YEAR: 1957
EXTT0=
EXTT1=
EXTT2=
EXTT3=
EXTT4=
EXTT5=
EXTT6=
EXTT7=
EXTT8=
EXTT9=
EXTT10=
EXTT11=
PLAYORDER=
